PathFileType	4	(X/Y/Z)	Kaydara	
DataRate	CameraRate	NumFrames	NumMarkers	Units	OrigDataRate	OrigDataStartFrame	OrigNumFrames	
30.00	30.00	5	28	mm	30.00	48	126	
Frame#	Time	reference			Hips			Spine			Spine1			Neck			Head			Head_End			LeftShoulder			LeftArm			LeftForeArm			LeftHand			LeftHand_End			RightShoulder			RightArm			RightForeArm			RightHand			RightHand_End			LeftUpLeg			LeftLeg			LeftFoot			LeftFoot_End			RightUpLeg			RightLeg			RightFoot			RightFoot_End			Tail			Tail1			Tail1_End			
		X1	Y1	Z1	X2	Y2	Z2	X3	Y3	Z3	X4	Y4	Z4	X5	Y5	Z5	X6	Y6	Z6	X7	Y7	Z7	X8	Y8	Z8	X9	Y9	Z9	X10	Y10	Z10	X11	Y11	Z11	X12	Y12	Z12	X13	Y13	Z13	X14	Y14	Z14	X15	Y15	Z15	X16	Y16	Z16	X17	Y17	Z17	X18	Y18	Z18	X19	Y19	Z19	X20	Y20	Z20	X21	Y21	Z21	X22	Y22	Z22	X23	Y23	Z23	X24	Y24	Z24	X25	Y25	Z25	X26	Y26	Z26	X27	Y27	Z27	X28	Y28	Z28	

48	1.567	0.00000	0.00000	0.00000	176.28490	43.34620	474.17065	176.28496	43.34615	474.17068	159.69327	-145.55500	462.29338	177.08195	-368.61102	437.70456	170.02424	-508.40282	434.79110	145.77050	-667.13171	378.96195	220.10427	-336.08802	412.59781	265.14247	-368.28764	354.85065	268.96943	-253.08623	255.76501	218.53151	-249.49944	85.09830	204.74894	-275.82271	19.51536	134.58528	-341.99439	405.69645	93.52197	-388.43388	355.10443	73.38371	-328.85845	216.72365	114.22937	-435.54698	80.22028	135.89490	-482.60949	30.22307	230.48616	94.46897	395.43196	273.60122	44.33927	249.73341	259.78608	195.21127	152.53874	263.50280	235.95738	52.58905	135.01629	94.20816	387.79326	133.51797	-19.22282	274.96088	151.22751	50.14912	109.81281	159.05532	18.92542	6.72156	177.27863	110.49655	459.45664	201.58166	164.19667	354.93084	223.78537	213.94687	248.01073 
49	1.600	0.00000	0.00000	0.00000	173.49058	37.48777	473.71445	173.49064	37.48772	473.71448	158.21045	-151.60528	463.20953	176.92440	-374.41260	437.37055	169.40633	-514.18652	434.76786	144.37521	-672.30590	377.56904	219.71954	-341.49087	412.39555	264.82508	-372.82505	354.22640	267.97061	-256.21224	256.78138	217.88933	-251.35468	86.04110	204.40566	-276.48636	19.93069	134.23009	-347.87864	405.55742	93.39630	-394.43188	354.88424	72.67232	-332.97269	217.41676	113.88103	-437.07925	79.04172	134.46106	-483.76065	28.23518	228.11969	88.71553	395.34053	272.77750	35.04357	251.37885	258.41554	187.18341	156.26195	263.21071	226.36420	55.73398	132.68382	88.63210	387.28439	131.81061	-24.28561	273.93181	150.82767	48.54482	110.42628	159.26883	18.61709	6.99960	174.65933	104.67264	459.17190	199.36561	159.06065	355.09728	221.79347	209.95024	248.76178 
50	1.633	0.00000	0.00000	0.00000	170.74533	32.01607	473.24600	170.74539	32.01602	473.24603	156.81193	-157.24222	463.90922	176.65639	-379.84390	437.15744	168.68775	-519.59863	434.88591	142.75482	-676.97888	376.07314	219.27935	-346.60285	412.31132	264.48756	-377.32392	353.89536	267.04738	-259.63571	257.73453	217.60475	-253.19712	86.86047	204.28505	-277.11813	20.26943	133.82246	-353.39801	405.45885	93.11919	-399.92594	354.65757	72.52145	-336.96623	217.85176	114.50507	-438.40834	77.74160	135.90568	-484.99980	27.19216	225.79475	83.09558	395.06966	272.00083	24.38045	253.58647	256.77406	177.61082	160.37370	262.94897	214.36266	59.00717	130.39271	83.19337	386.62245	130.07479	-29.27372	272.81985	150.27173	47.14077	111.10131	159.36262	18.56971	7.34655	172.10442	99.19075	458.67295	197.26055	154.19315	355.02988	220.10768	206.21048	249.33123 
51	1.667	0.00000	0.00000	0.00000	168.16254	26.82373	472.69333	168.16259	26.82368	472.69336	155.58839	-162.57211	464.25990	176.25380	-385.04355	437.05022	167.75696	-524.76864	434.87116	141.10938	-681.95305	375.85451	218.76201	-351.59526	412.28576	264.09809	-381.75775	353.67813	266.77605	-263.25004	258.53233	217.53601	-255.08489	87.67354	204.43046	-277.78821	20.61537	133.33246	-358.68834	405.39437	92.61348	-404.94798	354.36120	73.57264	-339.43151	218.53388	115.80099	-438.23224	76.62135	137.62894	-484.81185	26.24402	223.61700	77.57094	394.58688	270.77556	13.05010	255.97557	254.82246	166.98424	164.05280	262.01808	200.70676	61.70527	128.24527	77.90147	385.80969	128.25726	-34.23730	271.68312	149.38529	45.82424	111.85905	159.26861	18.76943	7.77083	169.75048	93.95969	457.96582	195.36346	149.50659	354.72582	218.75242	202.61004	249.68783 
52	1.700	0.00000	0.00000	0.00000	165.89125	21.71026	472.10266	165.89130	21.71021	472.10269	154.61274	-167.79157	464.23691	175.80475	-390.21356	437.02803	166.99179	-529.92626	435.37302	140.48008	-687.01045	376.02923	218.27705	-356.66909	412.33214	263.80021	-386.58219	353.74171	266.41081	-267.40849	259.42953	217.42003	-257.57195	88.58714	204.31480	-278.38848	20.91941	132.87366	-363.94770	405.31120	92.34749	-409.81539	353.77327	74.94778	-341.19053	219.26713	117.05945	-438.20999	76.09655	138.50690	-484.76595	25.53426	221.77663	71.90413	393.94581	269.25614	0.90267	258.65186	252.96881	155.61569	168.10561	260.44541	185.95987	64.72606	126.43494	72.54134	384.86454	126.39013	-39.11261	270.26361	148.83752	44.40166	112.39829	159.35694	18.48215	8.08376	167.77031	88.77311	457.07931	193.55440	144.73412	354.10587	217.21603	198.77354	249.60771 
